<svg width="25" height="25" viewBox="0 0 25 25" fill="none" xmlns="http://www.w3.org/2000/svg">
<path d="M9.45831 0.666657C11.22 0.666619 12.9447 1.17194 14.4279 2.12266C15.911 3.07338 17.0903 4.4296 17.8259 6.0304C18.5614 7.63121 18.8223 9.40941 18.5776 11.154C18.3329 12.8987 17.5929 14.5365 16.4453 15.8732L24.441 23.8688L23.4394 24.8704L15.4423 16.8733C14.3145 17.8378 12.9702 18.5154 11.5241 18.8485C10.0779 19.1815 8.57268 19.1601 7.13658 18.786C5.70049 18.412 4.37607 17.6964 3.27613 16.7001C2.17619 15.7039 1.33332 14.4567 0.819298 13.0645C0.305275 11.6724 0.135333 10.1766 0.323945 8.70464C0.512558 7.23267 1.05414 5.82809 1.90255 4.61052C2.75097 3.39295 3.8811 2.39848 5.19667 1.71179C6.51225 1.0251 7.9743 0.666542 9.45831 0.666657ZM9.45831 2.08332C7.39183 2.08332 5.40999 2.90423 3.94877 4.36545C2.48755 5.82667 1.66664 7.80851 1.66664 9.87499C1.66664 11.9415 2.48755 13.9233 3.94877 15.3845C5.40999 16.8458 7.39183 17.6667 9.45831 17.6667C11.5248 17.6667 13.5066 16.8458 14.9679 15.3845C16.4291 13.9233 17.25 11.9415 17.25 9.87499C17.25 7.80851 16.4291 5.82667 14.9679 4.36545C13.5066 2.90423 11.5248 2.08332 9.45831 2.08332Z" fill="black" fill-opacity="0.47"/>
</svg>
