<svg width="32" height="37" viewBox="0 0 32 37" fill="none" xmlns="http://www.w3.org/2000/svg">
<path d="M27.2071 7.01699C24.2143 3.98184 20.2286 2.3125 15.9929 2.3125C7.25 2.3125 0.135714 9.51016 0.135714 18.3555C0.135714 21.1811 0.864286 23.9416 2.25 26.377L0 34.6875L8.40714 32.4545C10.7214 33.7336 13.3286 34.4057 15.9857 34.4057H15.9929C24.7286 34.4057 32 27.208 32 18.3627C32 14.0773 30.2 10.0521 27.2071 7.01699ZM15.9929 31.7029C13.6214 31.7029 11.3 31.0598 9.27857 29.8457L8.8 29.5566L3.81429 30.8791L5.14286 25.9578L4.82857 25.452C3.50714 23.3273 2.81429 20.8775 2.81429 18.3555C2.81429 11.0061 8.72857 5.02246 16 5.02246C19.5214 5.02246 22.8286 6.40996 25.3143 8.93203C27.8 11.4541 29.3286 14.8 29.3214 18.3627C29.3214 25.7193 23.2571 31.7029 15.9929 31.7029ZM23.2214 21.7158C22.8286 21.5135 20.8786 20.5451 20.5143 20.415C20.15 20.2777 19.8857 20.2127 19.6214 20.6174C19.3571 21.0221 18.6 21.9182 18.3643 22.1928C18.1357 22.4602 17.9 22.4963 17.5071 22.2939C15.1786 21.116 13.65 20.191 12.1143 17.5244C11.7071 16.8162 12.5214 16.8668 13.2786 15.3348C13.4071 15.0674 13.3429 14.8361 13.2429 14.6338C13.1429 14.4314 12.35 12.4586 12.0214 11.6564C11.7 10.876 11.3714 10.9844 11.1286 10.9699C10.9 10.9555 10.6357 10.9555 10.3714 10.9555C10.1071 10.9555 9.67857 11.0566 9.31429 11.4541C8.95 11.8588 7.92857 12.8271 7.92857 14.8C7.92857 16.7729 9.35 18.6807 9.54286 18.948C9.74286 19.2154 12.3357 23.2623 16.3143 25.0039C18.8286 26.1023 19.8143 26.1963 21.0714 26.0084C21.8357 25.8928 23.4143 25.04 23.7429 24.1006C24.0714 23.1611 24.0714 22.359 23.9714 22.1928C23.8786 22.0121 23.6143 21.9109 23.2214 21.7158Z" fill="#00C75B"/>
</svg>
