<svg width="249" height="78" viewBox="0 0 249 78" fill="none" xmlns="http://www.w3.org/2000/svg">
<g filter="url(#filter0_d_2_943)">
<rect x="14" y="7" width="221" height="50" rx="25" fill="#00C75B"/>
<rect x="14.5" y="7.5" width="220" height="49" rx="24.5" stroke="black" stroke-opacity="0.2"/>
</g>
<path d="M108.692 13.4V26H106.352V20.6H99.8356V26H97.4956V13.4H99.8356V18.602H106.352V13.4H108.692ZM115.556 16.28C116.972 16.28 118.052 16.622 118.796 17.306C119.552 17.978 119.93 18.998 119.93 20.366V26H117.806V24.83C117.53 25.25 117.134 25.574 116.618 25.802C116.114 26.018 115.502 26.126 114.782 26.126C114.062 26.126 113.432 26.006 112.892 25.766C112.352 25.514 111.932 25.172 111.632 24.74C111.344 24.296 111.2 23.798 111.2 23.246C111.2 22.382 111.518 21.692 112.154 21.176C112.802 20.648 113.816 20.384 115.196 20.384H117.68V20.24C117.68 19.568 117.476 19.052 117.068 18.692C116.672 18.332 116.078 18.152 115.286 18.152C114.746 18.152 114.212 18.236 113.684 18.404C113.168 18.572 112.73 18.806 112.37 19.106L111.488 17.468C111.992 17.084 112.598 16.79 113.306 16.586C114.014 16.382 114.764 16.28 115.556 16.28ZM115.25 24.488C115.814 24.488 116.312 24.362 116.744 24.11C117.188 23.846 117.5 23.474 117.68 22.994V21.878H115.358C114.062 21.878 113.414 22.304 113.414 23.156C113.414 23.564 113.576 23.888 113.9 24.128C114.224 24.368 114.674 24.488 115.25 24.488ZM131.93 16.388V26H129.698V18.296H124.964V26H122.714V16.388H131.93ZM134.966 16.388H137.216V22.724L142.526 16.388H144.578V26H142.328V19.664L137.036 26H134.966V16.388ZM151.979 26.126C150.983 26.126 150.089 25.916 149.297 25.496C148.505 25.076 147.887 24.494 147.443 23.75C146.999 22.994 146.777 22.142 146.777 21.194C146.777 20.246 146.999 19.4 147.443 18.656C147.887 17.912 148.499 17.33 149.279 16.91C150.071 16.49 150.971 16.28 151.979 16.28C152.927 16.28 153.755 16.472 154.463 16.856C155.183 17.24 155.723 17.792 156.083 18.512L154.355 19.52C154.079 19.076 153.731 18.746 153.311 18.53C152.903 18.302 152.453 18.188 151.961 18.188C151.121 18.188 150.425 18.464 149.873 19.016C149.321 19.556 149.045 20.282 149.045 21.194C149.045 22.106 149.315 22.838 149.855 23.39C150.407 23.93 151.109 24.2 151.961 24.2C152.453 24.2 152.903 24.092 153.311 23.876C153.731 23.648 154.079 23.312 154.355 22.868L156.083 23.876C155.711 24.596 155.165 25.154 154.445 25.55C153.737 25.934 152.915 26.126 151.979 26.126ZM161.646 16.28C163.062 16.28 164.142 16.622 164.886 17.306C165.642 17.978 166.02 18.998 166.02 20.366V26H163.896V24.83C163.62 25.25 163.224 25.574 162.708 25.802C162.204 26.018 161.592 26.126 160.872 26.126C160.152 26.126 159.522 26.006 158.982 25.766C158.442 25.514 158.022 25.172 157.722 24.74C157.434 24.296 157.29 23.798 157.29 23.246C157.29 22.382 157.608 21.692 158.244 21.176C158.892 20.648 159.906 20.384 161.286 20.384H163.77V20.24C163.77 19.568 163.566 19.052 163.158 18.692C162.762 18.332 162.168 18.152 161.376 18.152C160.836 18.152 160.302 18.236 159.774 18.404C159.258 18.572 158.82 18.806 158.46 19.106L157.578 17.468C158.082 17.084 158.688 16.79 159.396 16.586C160.104 16.382 160.854 16.28 161.646 16.28ZM161.34 24.488C161.904 24.488 162.402 24.362 162.834 24.11C163.278 23.846 163.59 23.474 163.77 22.994V21.878H161.448C160.152 21.878 159.504 22.304 159.504 23.156C159.504 23.564 159.666 23.888 159.99 24.128C160.314 24.368 160.764 24.488 161.34 24.488ZM176.418 18.296H173.052V26H170.802V18.296H167.418V16.388H176.418V18.296ZM182.874 19.556C184.098 19.556 185.034 19.832 185.682 20.384C186.342 20.936 186.672 21.716 186.672 22.724C186.672 23.78 186.312 24.596 185.592 25.172C184.872 25.748 183.858 26.03 182.55 26.018L178.05 26V16.388H180.3V19.538L182.874 19.556ZM182.352 24.362C183.012 24.374 183.516 24.236 183.864 23.948C184.212 23.66 184.386 23.24 184.386 22.688C184.386 22.148 184.218 21.752 183.882 21.5C183.546 21.248 183.036 21.116 182.352 21.104L180.3 21.086V24.344L182.352 24.362ZM200.59 20.996C201.778 21.356 202.372 22.124 202.372 23.3C202.372 24.164 202.048 24.83 201.4 25.298C200.752 25.766 199.792 26 198.52 26H193.624V16.388H198.322C199.498 16.388 200.416 16.604 201.076 17.036C201.736 17.468 202.066 18.08 202.066 18.872C202.066 19.364 201.934 19.79 201.67 20.15C201.418 20.51 201.058 20.792 200.59 20.996ZM195.766 20.402H198.124C199.288 20.402 199.87 20 199.87 19.196C199.87 18.416 199.288 18.026 198.124 18.026H195.766V20.402ZM198.34 24.362C199.576 24.362 200.194 23.96 200.194 23.156C200.194 22.736 200.05 22.424 199.762 22.22C199.474 22.004 199.024 21.896 198.412 21.896H195.766V24.362H198.34ZM120.153 35.4L115.977 48H113.493L110.379 38.676L107.211 48H104.709L100.533 35.4H102.963L106.095 44.976L109.353 35.4H111.513L114.699 45.03L117.921 35.4H120.153ZM127.561 38.28C128.773 38.28 129.745 38.634 130.477 39.342C131.209 40.05 131.575 41.1 131.575 42.492V48H129.325V42.78C129.325 41.94 129.127 41.31 128.731 40.89C128.335 40.458 127.771 40.242 127.039 40.242C126.211 40.242 125.557 40.494 125.077 40.998C124.597 41.49 124.357 42.204 124.357 43.14V48H122.107V34.644H124.357V39.504C124.729 39.108 125.185 38.808 125.725 38.604C126.277 38.388 126.889 38.28 127.561 38.28ZM138.101 38.28C139.517 38.28 140.597 38.622 141.341 39.306C142.097 39.978 142.475 40.998 142.475 42.366V48H140.351V46.83C140.075 47.25 139.679 47.574 139.163 47.802C138.659 48.018 138.047 48.126 137.327 48.126C136.607 48.126 135.977 48.006 135.437 47.766C134.897 47.514 134.477 47.172 134.177 46.74C133.889 46.296 133.745 45.798 133.745 45.246C133.745 44.382 134.063 43.692 134.699 43.176C135.347 42.648 136.361 42.384 137.741 42.384H140.225V42.24C140.225 41.568 140.021 41.052 139.613 40.692C139.217 40.332 138.623 40.152 137.831 40.152C137.291 40.152 136.757 40.236 136.229 40.404C135.713 40.572 135.275 40.806 134.915 41.106L134.033 39.468C134.537 39.084 135.143 38.79 135.851 38.586C136.559 38.382 137.309 38.28 138.101 38.28ZM137.795 46.488C138.359 46.488 138.857 46.362 139.289 46.11C139.733 45.846 140.045 45.474 140.225 44.994V43.878H137.903C136.607 43.878 135.959 44.304 135.959 45.156C135.959 45.564 136.121 45.888 136.445 46.128C136.769 46.368 137.219 46.488 137.795 46.488ZM151.141 47.478C150.877 47.694 150.553 47.856 150.169 47.964C149.797 48.072 149.401 48.126 148.981 48.126C147.925 48.126 147.109 47.85 146.533 47.298C145.957 46.746 145.669 45.942 145.669 44.886V40.26H144.085V38.46H145.669V36.264H147.919V38.46H150.493V40.26H147.919V44.832C147.919 45.3 148.033 45.66 148.261 45.912C148.489 46.152 148.819 46.272 149.251 46.272C149.755 46.272 150.175 46.14 150.511 45.876L151.141 47.478ZM155.962 48.126C155.182 48.126 154.42 48.024 153.676 47.82C152.932 47.616 152.338 47.358 151.894 47.046L152.758 45.336C153.19 45.624 153.706 45.858 154.306 46.038C154.918 46.206 155.518 46.29 156.106 46.29C157.45 46.29 158.122 45.936 158.122 45.228C158.122 44.892 157.948 44.658 157.6 44.526C157.264 44.394 156.718 44.268 155.962 44.148C155.17 44.028 154.522 43.89 154.018 43.734C153.526 43.578 153.094 43.308 152.722 42.924C152.362 42.528 152.182 41.982 152.182 41.286C152.182 40.374 152.56 39.648 153.316 39.108C154.084 38.556 155.116 38.28 156.412 38.28C157.072 38.28 157.732 38.358 158.392 38.514C159.052 38.658 159.592 38.856 160.012 39.108L159.148 40.818C158.332 40.338 157.414 40.098 156.394 40.098C155.734 40.098 155.23 40.2 154.882 40.404C154.546 40.596 154.378 40.854 154.378 41.178C154.378 41.538 154.558 41.796 154.918 41.952C155.29 42.096 155.86 42.234 156.628 42.366C157.396 42.486 158.026 42.624 158.518 42.78C159.01 42.936 159.43 43.2 159.778 43.572C160.138 43.944 160.318 44.472 160.318 45.156C160.318 46.056 159.928 46.776 159.148 47.316C158.368 47.856 157.306 48.126 155.962 48.126ZM170.643 45.084H164.343L163.101 48H160.689L166.359 35.4H168.663L174.351 48H171.903L170.643 45.084ZM169.869 43.248L167.493 37.74L165.135 43.248H169.869ZM181.066 38.28C182.002 38.28 182.836 38.484 183.568 38.892C184.312 39.3 184.894 39.876 185.314 40.62C185.734 41.364 185.944 42.222 185.944 43.194C185.944 44.166 185.734 45.03 185.314 45.786C184.894 46.53 184.312 47.106 183.568 47.514C182.836 47.922 182.002 48.126 181.066 48.126C179.77 48.126 178.744 47.694 177.988 46.83V51.492H175.738V38.388H177.88V39.648C178.252 39.192 178.708 38.85 179.248 38.622C179.8 38.394 180.406 38.28 181.066 38.28ZM180.814 46.2C181.642 46.2 182.32 45.924 182.848 45.372C183.388 44.82 183.658 44.094 183.658 43.194C183.658 42.294 183.388 41.568 182.848 41.016C182.32 40.464 181.642 40.188 180.814 40.188C180.274 40.188 179.788 40.314 179.356 40.566C178.924 40.806 178.582 41.154 178.33 41.61C178.078 42.066 177.952 42.594 177.952 43.194C177.952 43.794 178.078 44.322 178.33 44.778C178.582 45.234 178.924 45.588 179.356 45.84C179.788 46.08 180.274 46.2 180.814 46.2ZM193.406 38.28C194.342 38.28 195.176 38.484 195.908 38.892C196.652 39.3 197.234 39.876 197.654 40.62C198.074 41.364 198.284 42.222 198.284 43.194C198.284 44.166 198.074 45.03 197.654 45.786C197.234 46.53 196.652 47.106 195.908 47.514C195.176 47.922 194.342 48.126 193.406 48.126C192.11 48.126 191.084 47.694 190.328 46.83V51.492H188.078V38.388H190.22V39.648C190.592 39.192 191.048 38.85 191.588 38.622C192.14 38.394 192.746 38.28 193.406 38.28ZM193.154 46.2C193.982 46.2 194.66 45.924 195.188 45.372C195.728 44.82 195.998 44.094 195.998 43.194C195.998 42.294 195.728 41.568 195.188 41.016C194.66 40.464 193.982 40.188 193.154 40.188C192.614 40.188 192.128 40.314 191.696 40.566C191.264 40.806 190.922 41.154 190.67 41.61C190.418 42.066 190.292 42.594 190.292 43.194C190.292 43.794 190.418 44.322 190.67 44.778C190.922 45.234 191.264 45.588 191.696 45.84C192.128 46.08 192.614 46.2 193.154 46.2Z" fill="white"/>
<path d="M71.2071 20.017C68.2143 16.9818 64.2286 15.3125 59.9929 15.3125C51.25 15.3125 44.1357 22.5102 44.1357 31.3555C44.1357 34.1811 44.8643 36.9416 46.25 39.377L44 47.6875L52.4071 45.4545C54.7214 46.7336 57.3286 47.4057 59.9857 47.4057H59.9929C68.7286 47.4057 76 40.208 76 31.3627C76 27.0773 74.2 23.0521 71.2071 20.017V20.017ZM59.9929 44.7029C57.6214 44.7029 55.3 44.0598 53.2786 42.8457L52.8 42.5566L47.8143 43.8791L49.1429 38.9578L48.8286 38.452C47.5071 36.3273 46.8143 33.8775 46.8143 31.3555C46.8143 24.0061 52.7286 18.0225 60 18.0225C63.5214 18.0225 66.8286 19.41 69.3143 21.932C71.8 24.4541 73.3286 27.8 73.3214 31.3627C73.3214 38.7193 67.2571 44.7029 59.9929 44.7029V44.7029ZM67.2214 34.7158C66.8286 34.5135 64.8786 33.5451 64.5143 33.415C64.15 33.2777 63.8857 33.2127 63.6214 33.6174C63.3571 34.0221 62.6 34.9182 62.3643 35.1928C62.1357 35.4602 61.9 35.4963 61.5071 35.2939C59.1786 34.116 57.65 33.191 56.1143 30.5244C55.7071 29.8162 56.5214 29.8668 57.2786 28.3348C57.4071 28.0674 57.3429 27.8361 57.2429 27.6338C57.1429 27.4314 56.35 25.4586 56.0214 24.6564C55.7 23.876 55.3714 23.9844 55.1286 23.9699C54.9 23.9555 54.6357 23.9555 54.3714 23.9555C54.1071 23.9555 53.6786 24.0566 53.3143 24.4541C52.95 24.8588 51.9286 25.8271 51.9286 27.8C51.9286 29.7729 53.35 31.6807 53.5429 31.948C53.7429 32.2154 56.3357 36.2623 60.3143 38.0039C62.8286 39.1023 63.8143 39.1963 65.0714 39.0084C65.8357 38.8928 67.4143 38.04 67.7429 37.1006C68.0714 36.1611 68.0714 35.359 67.9714 35.1928C67.8786 35.0121 67.6143 34.9109 67.2214 34.7158Z" fill="white"/>
<defs>
<filter id="filter0_d_2_943" x="0" y="0" width="249" height="78" filterUnits="userSpaceOnUse" color-interpolation-filters="sRGB">
<feFlood flood-opacity="0" result="BackgroundImageFix"/>
<feColorMatrix in="SourceAlpha" type="matrix" values="0 0 0 0 0 0 0 0 0 0 0 0 0 0 0 0 0 0 127 0" result="hardAlpha"/>
<feOffset dy="7"/>
<feGaussianBlur stdDeviation="7"/>
<feComposite in2="hardAlpha" operator="out"/>
<feColorMatrix type="matrix" values="0 0 0 0 0.0227501 0 0 0 0 0.65 0 0 0 0 0.311285 0 0 0 0.63 0"/>
<feBlend mode="normal" in2="BackgroundImageFix" result="effect1_dropShadow_2_943"/>
<feBlend mode="normal" in="SourceGraphic" in2="effect1_dropShadow_2_943" result="shape"/>
</filter>
</defs>
</svg>
