<svg xmlns="http://www.w3.org/2000/svg" xmlns:xlink="http://www.w3.org/1999/xlink" width="222" height="42" viewBox="0 0 222 42">
  <defs>
    <clipPath id="clip-path">
      <rect id="Rectangle_12" data-name="Rectangle 12" width="222" height="42"/>
    </clipPath>
    <linearGradient id="linear-gradient" x1="1" x2="0" y2="1" gradientUnits="objectBoundingBox">
      <stop offset="0" stop-color="#5acf66"/>
      <stop offset="1" stop-color="#2ab540"/>
    </linearGradient>
  </defs>
  <g id="Artboard_1" data-name="Artboard – 1" clip-path="url(#clip-path)">
    <rect width="222" height="42" fill="#fff"/>
    <g id="Gradient_Green_2AB540_-_5ACF66" data-name="Gradient Green #2AB540 - #5ACF66" clip-path="url(#clip-path)">
      <rect id="Rectangle_11" data-name="Rectangle 11" width="222" height="42" fill="#fff"/>
      <g id="Group_2" data-name="Group 2">
        <rect id="Rectangle_16" data-name="Rectangle 16" width="222" height="42" rx="3" fill="url(#linear-gradient)"/>
        <g id="Group_1" data-name="Group 1" transform="translate(-1704 -1108)">
          <path id="Path_1" data-name="Path 1" d="M17.507,14.307l-.009.075c-2.2-1.1-2.429-1.242-2.713-.816-.2.3-.771.964-.944,1.162s-.349.21-.646.075a8.116,8.116,0,0,1-2.4-1.485,9.073,9.073,0,0,1-1.66-2.07c-.293-.506.32-.578.878-1.634a.55.55,0,0,0-.025-.524c-.075-.15-.672-1.62-.922-2.206s-.487-.51-.672-.51a1.488,1.488,0,0,0-1.368.344c-1.614,1.774-1.207,3.6.174,5.55,2.714,3.552,4.16,4.206,6.8,5.114a4.137,4.137,0,0,0,1.88.121,3.077,3.077,0,0,0,2.02-1.426,2.475,2.475,0,0,0,.18-1.425C18,14.517,17.807,14.442,17.507,14.307Z" transform="translate(1723 1117)" fill="#fff"/>
          <path id="Path_2" data-name="Path 2" d="M20.52,3.449C12.831-3.984.106,1.407.1,11.893A11.838,11.838,0,0,0,1.7,17.84L0,24l6.335-1.652A11.971,11.971,0,0,0,24,11.9a11.794,11.794,0,0,0-3.5-8.412ZM22,11.866a9.956,9.956,0,0,1-15.01,8.5l-.36-.214-3.75.975,1-3.645-.239-.375A9.918,9.918,0,0,1,19.093,4.876,9.788,9.788,0,0,1,22,11.866Z" transform="translate(1723 1117)" fill="#fff"/>
        </g>
        <path id="Написать_в_WhatsApp" data-name="Написать в WhatsApp" d="M9.551,0H7.705V-4.731H2.937V0H1.084V-10.664H2.937v4.438H7.705v-4.438H9.551ZM16.3,0A2.747,2.747,0,0,1,16.1-.74a2.77,2.77,0,0,1-2.08.886A2.8,2.8,0,0,1,12.07-.535a2.179,2.179,0,0,1-.754-1.685,2.25,2.25,0,0,1,.941-1.945,4.561,4.561,0,0,1,2.692-.677H16.04v-.52a1.388,1.388,0,0,0-.344-.985,1.365,1.365,0,0,0-1.047-.37,1.568,1.568,0,0,0-1,.3.941.941,0,0,0-.388.773h-1.78a1.975,1.975,0,0,1,.432-1.219,2.879,2.879,0,0,1,1.176-.89,4.129,4.129,0,0,1,1.659-.322,3.325,3.325,0,0,1,2.219.7,2.494,2.494,0,0,1,.85,1.967v3.574a4.051,4.051,0,0,0,.3,1.707V0ZM14.348-1.282a2.025,2.025,0,0,0,.992-.256,1.713,1.713,0,0,0,.7-.688V-3.721h-.959a2.624,2.624,0,0,0-1.487.344,1.115,1.115,0,0,0-.5.974,1.04,1.04,0,0,0,.341.817A1.319,1.319,0,0,0,14.348-1.282ZM26.4,0h-1.78V-6.489H21.533V0h-1.78V-7.925H26.4Zm6.841-7.925h1.772V0H33.245V-5.288L30.139,0H28.367V-7.925h1.772v5.288Zm6.921,6.65a1.609,1.609,0,0,0,1.106-.388,1.326,1.326,0,0,0,.469-.959h1.677a2.614,2.614,0,0,1-.461,1.381A3.027,3.027,0,0,1,41.785-.227a3.492,3.492,0,0,1-1.6.374A3.379,3.379,0,0,1,37.551-.93,4.27,4.27,0,0,1,36.577-3.9v-.183a4.2,4.2,0,0,1,.967-2.9,3.348,3.348,0,0,1,2.637-1.088,3.256,3.256,0,0,1,2.3.824,2.952,2.952,0,0,1,.934,2.164H41.741A1.63,1.63,0,0,0,41.276-6.2a1.5,1.5,0,0,0-1.11-.439,1.566,1.566,0,0,0-1.333.626,3.2,3.2,0,0,0-.476,1.9v.286a3.248,3.248,0,0,0,.465,1.923A1.565,1.565,0,0,0,40.166-1.274ZM49.5,0a2.747,2.747,0,0,1-.205-.74,2.77,2.77,0,0,1-2.08.886,2.8,2.8,0,0,1-1.948-.681,2.179,2.179,0,0,1-.754-1.685,2.25,2.25,0,0,1,.941-1.945,4.561,4.561,0,0,1,2.692-.677h1.091v-.52a1.388,1.388,0,0,0-.344-.985,1.365,1.365,0,0,0-1.047-.37,1.568,1.568,0,0,0-1,.3.941.941,0,0,0-.388.773h-1.78a1.975,1.975,0,0,1,.432-1.219,2.879,2.879,0,0,1,1.176-.89,4.129,4.129,0,0,1,1.659-.322,3.325,3.325,0,0,1,2.219.7,2.494,2.494,0,0,1,.85,1.967v3.574a4.051,4.051,0,0,0,.3,1.707V0ZM47.542-1.282a2.025,2.025,0,0,0,.992-.256,1.713,1.713,0,0,0,.7-.688V-3.721h-.959a2.624,2.624,0,0,0-1.487.344,1.115,1.115,0,0,0-.5.974,1.04,1.04,0,0,0,.341.817A1.319,1.319,0,0,0,47.542-1.282ZM59-6.511H56.426V0h-1.78V-6.511H52.1V-7.925H59Zm3.1,1.106h1.743a4,4,0,0,1,1.7.337,2.49,2.49,0,0,1,1.1.945,2.626,2.626,0,0,1,.377,1.414,2.455,2.455,0,0,1-.864,1.963,3.444,3.444,0,0,1-2.3.747H60.315V-7.925h1.78Zm0,1.428v2.556h1.736a1.521,1.521,0,0,0,1.029-.326,1.158,1.158,0,0,0,.377-.927,1.239,1.239,0,0,0-.37-.948,1.426,1.426,0,0,0-1-.355ZM72.312,0V-7.925h3.215A4.463,4.463,0,0,1,78-7.357a1.842,1.842,0,0,1,.85,1.63,1.558,1.558,0,0,1-.341.985,2.136,2.136,0,0,1-1.007.67,2.244,2.244,0,0,1,1.23.652,1.648,1.648,0,0,1,.454,1.157,1.935,1.935,0,0,1-.817,1.685A4.03,4.03,0,0,1,76.025,0Zm1.78-3.376v1.97H76.04q1.37,0,1.37-.981t-1.392-.989Zm0-1.274h1.465q1.516,0,1.516-.894,0-.937-1.436-.967H74.092ZM93-2.637l1.641-8.027h1.838L94.014,0H92.241L90.212-7.786,88.14,0H86.36L83.9-10.664h1.838l1.655,8.013,2.036-8.013h1.553Zm6.416-4.424a2.786,2.786,0,0,1,2.2-1.011q2.534,0,2.571,2.893V0h-1.78V-5.112a1.565,1.565,0,0,0-.355-1.161,1.452,1.452,0,0,0-1.044-.341,1.714,1.714,0,0,0-1.6.952V0h-1.78V-11.25h1.78ZM110.72,0a2.747,2.747,0,0,1-.205-.74,2.77,2.77,0,0,1-2.08.886,2.8,2.8,0,0,1-1.948-.681,2.179,2.179,0,0,1-.754-1.685,2.25,2.25,0,0,1,.941-1.945,4.561,4.561,0,0,1,2.692-.677h1.091v-.52a1.388,1.388,0,0,0-.344-.985,1.365,1.365,0,0,0-1.047-.37,1.568,1.568,0,0,0-1,.3.941.941,0,0,0-.388.773H105.9a1.975,1.975,0,0,1,.432-1.219,2.879,2.879,0,0,1,1.176-.89,4.129,4.129,0,0,1,1.659-.322,3.325,3.325,0,0,1,2.219.7,2.494,2.494,0,0,1,.85,1.967v3.574a4.051,4.051,0,0,0,.3,1.707V0Zm-1.956-1.282a2.025,2.025,0,0,0,.992-.256,1.713,1.713,0,0,0,.7-.688V-3.721H109.5a2.624,2.624,0,0,0-1.487.344,1.115,1.115,0,0,0-.5.974,1.04,1.04,0,0,0,.341.817A1.319,1.319,0,0,0,108.765-1.282Zm7.566-8.569v1.926h1.4v1.318h-1.4v4.424a.974.974,0,0,0,.179.656.832.832,0,0,0,.641.2,2.742,2.742,0,0,0,.623-.073V-.022A4.383,4.383,0,0,1,116.6.146q-2.051,0-2.051-2.263v-4.49h-1.3V-7.925h1.3V-9.851Zm7.2,7.7a.807.807,0,0,0-.392-.725,4.167,4.167,0,0,0-1.3-.439,6.683,6.683,0,0,1-1.516-.483,2.023,2.023,0,0,1-1.333-1.868,2.109,2.109,0,0,1,.864-1.714,3.417,3.417,0,0,1,2.2-.688,3.555,3.555,0,0,1,2.3.7,2.231,2.231,0,0,1,.875,1.824h-1.78a1.1,1.1,0,0,0-.381-.853,1.46,1.46,0,0,0-1.011-.341,1.577,1.577,0,0,0-.956.271.854.854,0,0,0-.37.725.721.721,0,0,0,.344.637,4.734,4.734,0,0,0,1.392.458,6.587,6.587,0,0,1,1.644.549,2.328,2.328,0,0,1,.886.765,1.952,1.952,0,0,1,.289,1.084,2.065,2.065,0,0,1-.886,1.732,3.779,3.779,0,0,1-2.322.663,4.1,4.1,0,0,1-1.736-.352,2.857,2.857,0,0,1-1.187-.967,2.288,2.288,0,0,1-.425-1.326h1.729a1.254,1.254,0,0,0,.476.97,1.85,1.85,0,0,0,1.165.341,1.8,1.8,0,0,0,1.069-.267A.827.827,0,0,0,123.53-2.153Zm9.441-.33H128.84L127.976,0H126.05l4.028-10.664h1.663L135.776,0h-1.934ZM129.36-3.977h3.091L130.906-8.4Zm14.041.1a4.718,4.718,0,0,1-.835,2.933A2.674,2.674,0,0,1,140.325.146a2.692,2.692,0,0,1-2.087-.857V3.047h-1.78V-7.925H138.1l.073.806a2.614,2.614,0,0,1,2.131-.952,2.7,2.7,0,0,1,2.274,1.08,4.844,4.844,0,0,1,.824,3Zm-1.772-.154a3.305,3.305,0,0,0-.472-1.882,1.536,1.536,0,0,0-1.351-.7,1.638,1.638,0,0,0-1.567.9V-2.2a1.653,1.653,0,0,0,1.582.923,1.534,1.534,0,0,0,1.329-.685A3.638,3.638,0,0,0,141.628-4.036Zm10.217.154a4.718,4.718,0,0,1-.835,2.933A2.674,2.674,0,0,1,148.77.146a2.692,2.692,0,0,1-2.087-.857V3.047H144.9V-7.925h1.641l.073.806a2.614,2.614,0,0,1,2.131-.952,2.7,2.7,0,0,1,2.274,1.08,4.844,4.844,0,0,1,.824,3Zm-1.772-.154a3.305,3.305,0,0,0-.472-1.882,1.536,1.536,0,0,0-1.351-.7,1.638,1.638,0,0,0-1.567.9V-2.2a1.653,1.653,0,0,0,1.582.923,1.534,1.534,0,0,0,1.329-.685A3.638,3.638,0,0,0,150.073-4.036Z" transform="translate(51.781 26)" fill="#fff"/>
      </g>
    </g>
  </g>
</svg>
